<svg xmlns="http://www.w3.org/2000/svg" xmlns:xlink="http://www.w3.org/1999/xlink" version="1.1" id="Your_Icon" x="0px" y="0px" width="100px" height="100px" viewBox="0 0 100 100" enable-background="new 0 0 100 100" xml:space="preserve">
<path d="M86.71,47.208c0,0,5.217-11.117-9.302-14.748c0,0-1.093-4.158-5.424-4.935c7.146-2.319,11.554-9.077,11.554-9.077  c-8.043-0.7-13.226,0.782-16.471,2.568c8.813-12.794,16.02-14.021,16.02-14.021L81.704,3c-10.558,4.723-16.188,11.943-19.002,16.94  c-2.081-2.963-6.852-7.197-17.533-8.855c0,0,1.43,4.085,4.704,7.827c-2.199-1.347-5.838-2.201-11.036,0.842  c0,0-9.302-8.169-15.429,4.991c0,0-12.025,2.723-7.942,16.336c0,0-8.849,6.128-2.495,16.564c0,0-7.715,9.074,3.63,18.829  c0,0-0.91,16.564,13.838,15.883c0,0,5.901,10.438,17.018,2.725c0,0,15.429,6.351,17.47-8.396c0,0,9.756-1.36,9.074-12.479  c0,0,10.438-2.95,7.942-14.068C81.945,60.14,91.02,56.509,86.71,47.208z"/>
</svg>