<svg xmlns="http://www.w3.org/2000/svg" xmlns:xlink="http://www.w3.org/1999/xlink" version="1.1" id="Layer_1" x="0px" y="0px" width="100px" height="100px" viewBox="0 0 100 100" enable-background="new 0 0 100 100" xml:space="preserve">
<g>
	<path fill="none" d="M52.793,23.656c0.624-0.142,1.256-0.319,1.897-0.522c-0.62-0.599-1.147-1.193-1.574-1.714   C53.09,22.167,52.976,22.914,52.793,23.656z"/>
	<path fill="none" d="M43.253,17.985c-0.92,1.299-1.137,2.82-1.13,3.999c0.51,0.182,1.01,0.361,1.496,0.535   c0.174-2.191,0.884-4.42,1.755-6.421C44.617,16.569,43.881,17.101,43.253,17.985z"/>
	<path d="M72.231,19.56c3.276-0.475,7.072-0.634,8.144-1.141c1.858-0.879,4.758-6.875,1.94-4.878   c-2.816,1.997-6.254-0.381-9.912,1.045c-2.509,0.978-4.364,3.551-5.284,5.073c-0.338,0.037-0.662,0.085-0.988,0.132   c0.039-0.221,0.08-0.452,0.126-0.701c1.312-7.206-8.126-11.459-8.126-11.459s-2.058,3.065-0.78,6.1   c1.275,3.036,3.546,2.738,5.062,4.875c0.395,0.557,0.634,1.164,0.775,1.755c-0.13,0.031-0.26,0.062-0.388,0.094   c-3.792,0.085-8.293,0.154-9.833-1.036c-0.058-0.297-0.127-0.593-0.22-0.887c-0.188-0.599-0.351-1.091-0.494-1.508   c0.151-0.465,0.263-0.985,0.31-1.599c0.246-3.159-2.051-5.491-2.824-6.182c-0.145-2.4-1.404-4.289-1.404-4.289   s-11.204,5.051-9.646,13.604c0.182,1,0.316,1.788,0.415,2.411c-0.205-0.063-0.416-0.123-0.626-0.183   c-0.028-0.098-0.044-0.156-0.044-0.156s-2.698-5.725-7.042-7.418c-4.343-1.693-8.424,1.13-11.768-1.24s0.099,4.748,2.304,5.792   c1.841,0.872,10.443,0.878,14.152,2.411c-1.93-0.417-4.052-0.696-6.431-0.696c-11.496,0-17.149,7.726-17.149,18.279   c0,19.976,22.096,57.288,37.501,57.288c15.123,0,37.501-37.312,37.501-57.288C87.501,27.799,82.461,20.366,72.231,19.56z    M21.263,43.332c-0.625,0-1.131-0.64-1.131-1.428c0-0.789,0.506-1.428,1.131-1.428c0.624,0,1.13,0.64,1.13,1.428   C22.393,42.692,21.887,43.332,21.263,43.332z M21.263,33.156c-0.625,0-1.131-0.64-1.131-1.428c0-0.788,0.506-1.428,1.131-1.428   c0.624,0,1.13,0.64,1.13,1.428C22.393,32.516,21.887,33.156,21.263,33.156z M30.308,61.233c-0.625,0-1.131-0.638-1.131-1.426   c0-0.791,0.506-1.429,1.131-1.429c0.624,0,1.13,0.638,1.13,1.429C31.438,60.596,30.932,61.233,30.308,61.233z M30.308,49.928   c-0.625,0-1.131-0.64-1.131-1.428c0-0.789,0.506-1.428,1.131-1.428c0.624,0,1.13,0.64,1.13,1.428   C31.438,49.288,30.932,49.928,30.308,49.928z M30.308,39.751c-0.625,0-1.131-0.64-1.131-1.428c0-0.788,0.506-1.428,1.131-1.428   c0.624,0,1.13,0.64,1.13,1.428C31.438,39.112,30.932,39.751,30.308,39.751z M39.354,34.822c0.624,0,1.13,0.64,1.13,1.428   c0,0.788-0.506,1.428-1.13,1.428c-0.625,0-1.131-0.64-1.131-1.428C38.222,35.462,38.729,34.822,39.354,34.822z M39.354,70.467   c-0.625,0-1.131-0.638-1.131-1.427c0-0.79,0.506-1.429,1.131-1.429c0.624,0,1.13,0.639,1.13,1.429   C40.484,69.829,39.978,70.467,39.354,70.467z M39.354,59.16c-0.625,0-1.131-0.639-1.131-1.427s0.506-1.429,1.131-1.429   c0.624,0,1.13,0.641,1.13,1.429S39.978,59.16,39.354,59.16z M39.354,48.688c-0.989,0-1.791-1.012-1.791-2.261   c0-1.249,0.802-2.261,1.791-2.261c0.988,0,1.79,1.013,1.79,2.261C41.144,47.675,40.342,48.688,39.354,48.688z M50,36.895   c0.625,0,1.13,0.64,1.13,1.428c0,0.789-0.506,1.428-1.13,1.428c-0.625,0-1.131-0.64-1.131-1.428   C48.869,37.535,49.375,36.895,50,36.895z M43.619,22.518c-0.486-0.173-0.986-0.353-1.496-0.535c-0.006-1.178,0.21-2.7,1.13-3.999   c0.627-0.884,1.364-1.416,2.121-1.888C44.503,18.098,43.793,20.327,43.619,22.518z M50,84.035c-0.625,0-1.131-0.639-1.131-1.427   c0-0.791,0.506-1.429,1.131-1.429c0.625,0,1.13,0.638,1.13,1.429C51.131,83.396,50.625,84.035,50,84.035z M50,73.375   c-0.989,0-1.791-1.014-1.791-2.261c0-1.25,0.802-2.262,1.791-2.262c0.989,0,1.791,1.012,1.791,2.262   C51.791,72.361,50.989,73.375,50,73.375z M48.869,59.808c0-0.791,0.506-1.429,1.131-1.429c0.625,0,1.13,0.638,1.13,1.429   c0,0.788-0.506,1.426-1.13,1.426C49.375,61.233,48.869,60.596,48.869,59.808z M50,50.761c-0.989,0-1.791-1.013-1.791-2.261   c0-1.249,0.802-2.261,1.791-2.261c0.989,0,1.791,1.012,1.791,2.261C51.791,49.748,50.989,50.761,50,50.761z M52.793,23.656   c0.183-0.742,0.297-1.49,0.323-2.236c0.427,0.521,0.954,1.115,1.574,1.714C54.049,23.337,53.417,23.515,52.793,23.656z    M60.176,70.467c-0.624,0-1.131-0.638-1.131-1.427c0-0.79,0.507-1.429,1.131-1.429c0.625,0,1.131,0.639,1.131,1.429   C61.307,69.829,60.801,70.467,60.176,70.467z M60.176,59.995c-0.988,0-1.79-1.014-1.79-2.262c0-1.25,0.802-2.261,1.79-2.261   c0.989,0,1.791,1.011,1.791,2.261C61.967,58.981,61.165,59.995,60.176,59.995z M59.045,46.426c0-0.789,0.507-1.428,1.131-1.428   c0.625,0,1.131,0.64,1.131,1.428s-0.506,1.428-1.131,1.428C59.552,47.854,59.045,47.215,59.045,46.426z M60.176,38.512   c-0.988,0-1.79-1.013-1.79-2.261c0-1.249,0.802-2.262,1.79-2.262c0.989,0,1.791,1.013,1.791,2.262   C61.967,37.499,61.165,38.512,60.176,38.512z M72.142,59.16c-0.623,0-1.129-0.639-1.129-1.427c0-0.79,0.506-1.429,1.129-1.429   c0.625,0,1.132,0.639,1.132,1.429C73.273,58.521,72.767,59.16,72.142,59.16z M72.142,48.688c-0.988,0-1.789-1.012-1.789-2.261   c0-1.249,0.801-2.261,1.789-2.261c0.989,0,1.791,1.013,1.791,2.261C73.933,47.675,73.131,48.688,72.142,48.688z M72.142,38.512   c-0.988,0-1.789-1.013-1.789-2.261c0-1.249,0.801-2.262,1.789-2.262c0.989,0,1.791,1.013,1.791,2.262   C73.933,37.499,73.131,38.512,72.142,38.512z M78.737,43.332c-0.624,0-1.131-0.64-1.131-1.428c0-0.789,0.507-1.428,1.131-1.428   c0.625,0,1.131,0.64,1.131,1.428C79.868,42.692,79.362,43.332,78.737,43.332z M78.737,33.156c-0.624,0-1.131-0.64-1.131-1.428   c0-0.788,0.507-1.428,1.131-1.428c0.625,0,1.131,0.64,1.131,1.428C79.868,32.516,79.362,33.156,78.737,33.156z"/>
</g>
<path d="M-180.75,3.75c0,0-5.5,9.375,0,14.75s0.875,1.625,0.875,1.625s-4.875-2.75-8.875-1.75s-5.5,5.125-9.125,5.125  s2.5,3.375,4.625,3s10.625-6.625,13.125-5.5s4.75-0.5,4.75-0.5s-2.375-2-2.375-4.75s2.125-3.875,1.375-7.25  S-180.75,3.75-180.75,3.75z"/>
</svg>