<?xml version="1.0" encoding="utf-8"?>
<!-- Generator: Adobe Illustrator 16.0.0, SVG Export Plug-In . SVG Version: 6.00 Build 0)  -->
<!DOCTYPE svg PUBLIC "-//W3C//DTD SVG 1.1//EN" "http://www.w3.org/Graphics/SVG/1.1/DTD/svg11.dtd">
<svg version="1.1" id="Layer_1" xmlns="http://www.w3.org/2000/svg" xmlns:xlink="http://www.w3.org/1999/xlink" x="0px" y="0px"
	 width="150px" height="149.333px" viewBox="0 0 150 149.333" enable-background="new 0 0 150 149.333" xml:space="preserve">
<g>
	<g>
		<path fill="#FFFFFF" d="M75.333,146.085c-39.38,0-71.419-32.038-71.419-71.419c0-39.38,32.039-71.419,71.419-71.419
			c39.381,0,71.419,32.039,71.419,71.419C146.752,114.047,114.714,146.085,75.333,146.085z M75.333,8.248
			c-36.624,0-66.419,29.795-66.419,66.419c0,36.624,29.795,66.419,66.419,66.419c36.624,0,66.419-29.795,66.419-66.419
			C141.752,38.043,111.957,8.248,75.333,8.248z"/>
		<path fill="#FFFFFF" d="M75.333,148.085c-40.483,0-73.419-32.936-73.419-73.419S34.85,1.248,75.333,1.248
			s73.419,32.936,73.419,73.419S115.816,148.085,75.333,148.085z M75.333,5.248c-38.278,0-69.419,31.141-69.419,69.419
			c0,38.277,31.141,69.419,69.419,69.419c38.277,0,69.419-31.142,69.419-69.419C144.752,36.389,113.61,5.248,75.333,5.248z
			 M75.333,143.085c-37.727,0-68.419-30.692-68.419-68.419S37.606,6.248,75.333,6.248s68.419,30.692,68.419,68.419
			S113.06,143.085,75.333,143.085z M75.333,10.248c-35.521,0-64.419,28.898-64.419,64.419s28.898,64.419,64.419,64.419
			s64.419-28.898,64.419-64.419S110.854,10.248,75.333,10.248z"/>
	</g>
</g>
<g>
	<g>
		<path fill="#FFFFFF" d="M119.407,58.426c-3.162,6.79-11.438,1.395-19.716,4c4.743,8.277,3.72,19.438-8.742,29.296
			c-12.649,9.951-29.018,17.949-43.154,23.25c-5.115,1.953-9.486,1.209-11.532-0.837s-2.79-6.51-0.837-11.532
			c2.139-5.767,4.743-11.904,7.719-17.949c8.649-1.396,14.601,1.859,18.228,4.185c0.744,0.465,1.767,0.465,2.511-0.186
			c0.837-0.744,0.93-2.046,0.186-2.79c-5.115-5.674-11.439-8.464-16.461-9.673c2.232-3.906,4.557-7.812,7.161-11.439
			c10.695-3.255,18.136,1.767,21.576,3.72c0.744,0.558,1.768,0.558,2.419-0.093c0.837-0.744,0.93-1.953,0.278-2.791
			c-5.208-6.045-11.811-8.928-16.74-10.137c8.835-8.463,18.601-8.928,25.948-4.557c0.93-6.975,1.488-15.717,3.069-18.879
			c3.068-6.231,10.881-6.603,12.648,0.186c0.93,3.255,0.837,6.789,0.837,6.789s8.835-5.58,11.625-1.302
			c2.418,3.813-3.534,11.067-3.534,11.067S123.593,49.591,119.407,58.426z"/>
	</g>
</g>
</svg>
